# xmcd
#
# Track frame offsets:
# 150
# 9920
# 21648
# 37258
# 56963
# 72683
# 85860
# 98708
# 123225
# 137188
# 154755
# 170540
# 183990
# 203315
# 216478
#
# Disc length: 3036 seconds
#
# Revision: 0
# Processed by: cddbd v1.5.1PL0 Copyright (c) Steve Scherf et al.
# Submitted via: Audion 3.0.2 (http://www.panic.com/audion/)
#
DISCID=da0bda0f
DTITLE=Don Edwards - Chant Of The Wanderer
DYEAR=1900
DGENRE=
TTITLE0=Chant Of The Wanderer
TTITLE1=Gal From Abilene
TTITLE2=Ages And Ages Ago
TTITLE3=The Girl I Left Behind Me
TTITLE4=Lolita
TTITLE5=Saddle Tramp
TTITLE6=You Don't Know What Lonesome Is
TTITLE7=The Night Herder
TTITLE8=Cowboy Blues
TTITLE9=The Long Road West
TTITLE10=A Song Of The Range
TTITLE11=You're The Only Star In My Blue Heaven
TTITLE12=Ragged But Right
TTITLE13=Night Time On The Desert
TTITLE14=The Habit
EXTD=
EXTT0=
EXTT1=
EXTT2=
EXTT3=
EXTT4=
EXTT5=
EXTT6=
EXTT7=
EXTT8=
EXTT9=
EXTT10=
EXTT11=
EXTT12=
EXTT13=
EXTT14=
PLAYORDER=
